{"title":"Red Mist 2008 (Freak Dog) DVDRip Xvid LKRG","uid":6177772,"size":915063666,"categoryP":"video","categoryS":"movies","magnet":"?xt=urn:btih:c57d8b13d7c7a8b05fd571058a46ec7b70b6c059&amp;dn=Red+Mist+2008+%28Freak+Dog%29+DVDRip+Xvid+LKRG&amp;tr=udp%3A%2F%2Ftracker.openbittorrent.com%3A80&amp;tr=udp%3A%2F%2Fopen.demonii.com%3A1337&amp;tr=udp%3A%2F%2Ftracker.coppersurfer.tk%3A6969&amp;tr=udp%3A%2F%2Fexodus.desync.com%3A6969","seeders":0,"leechers":1,"uploader":"hiest","files":-1,"time":1297832989,"description":"Plot\n\nA young doctor in a US hospital administers a powerful and untested cocktail of drugs to a coma victim. But\ninstead of curing him, it triggers a powerful &quot;out-of-body&quot; experience and enables the patient - a depraved\nand dangerous loner - to inhabit other people's bodies and, through them, take revenge on the bullying medical\nstudents who were accidentally responsible for his condition. The doctor, who was herself a part of this group,\nis also targeted and as her colleagues are singled out and relentlessly picked off, she realises that she can\ntrust no-one\n\n\nGeneral\nComplete name : Red Mist (FreakDog) 2008 DVDRip Xvid BigPerm LKRGRM_LKRG.avi\nFormat : AVI\nFormat/Info : Audio Video Interleave\nFile size : 873 MiB\nDuration : 1h 25mn\nOverall bit rate : 1 430 Kbps\n\nVideo\nID : 0\nFormat : MPEG-4 Visual\nFormat profile : Advanced Simple@L5\nFormat settings, BVOP : Yes\nFormat settings, QPel : No\nFormat settings, GMC : No warppoints\nFormat settings, Matrix : Default (H.263)\nCodec ID : XVID\nCodec ID/Hint : XviD\nDuration : 1h 25mn\nBit rate : 977 Kbps\nWidth : 704 pixels\nHeight : 396 pixels\nDisplay aspect ratio : 16:9\nFrame rate : 23.976 fps\nColor space : YUV\nChroma subsampling : 4:2:0\nBit depth : 8 bits\nScan type : Progressive\nCompression mode : Lossy\nBits/(Pixel*Frame) : 0.146\nStream size : 596 MiB (68%)\nWriting library : XviD 1.2.1 (UTC 2008-12-04)\n\nAudio\nID : 1\nFormat : AC-3\nFormat/Info : Audio Coding 3\nMode extension : CM (complete main)\nCodec ID : 2000\nDuration : 1h 25mn\nBit rate mode : Constant\nBit rate : 448 Kbps\nChannel(s) : 6 channels\nChannel positions : Front: L C R, Side: L R, LFE\nSampling rate : 48.0 KHz\nBit depth : 16 bits\nCompression mode : Lossy\nVideo delay : 42ms\nStream size : 273 MiB (31%)\nAlignment : Split accross interleaves\nInterleave, duration : 500 ms (11.99 video frames)\nInterleave, preload duration : 500 ms\nLanguage : English\n\n &lt;a href=&quot;\nhttp://www.imdb.com/title/tt1185264/&quot; rel=&quot;nofollow&quot; target=&quot;_NEW&quot;&gt;\nhttp://www.imdb.com/title/tt1185264/&lt;/a&gt;\n\n\nScreen Shots:\n &lt;a href=&quot;\nhttp://leetleech.org/images/33277040556775720631.png&quot; rel=&quot;nofollow&quot; target=&quot;_NEW&quot;&gt;\nhttp://leetleech.org/images/33277040556775720631.png&lt;/a&gt;\n &lt;a href=&quot;\nhttp://leetleech.org/images/58769923842615486640.png&quot; rel=&quot;nofollow&quot; target=&quot;_NEW&quot;&gt;\nhttp://leetleech.org/images/58769923842615486640.png&lt;/a&gt;\n &lt;a href=&quot;\nhttp://leetleech.org/images/72080147901286821475.png&quot; rel=&quot;nofollow&quot; target=&quot;_NEW&quot;&gt;\nhttp://leetleech.org/images/72080147901286821475.png&lt;/a&gt;\n &lt;a href=&quot;\nhttp://leetleech.org/images/20043658510596460456.png&quot; rel=&quot;nofollow&quot; target=&quot;_NEW&quot;&gt;\nhttp://leetleech.org/images/20043658510596460456.png&lt;/a&gt;\n &lt;a href=&quot;\nhttp://leetleech.org/images/49096647227738764874.png&quot; rel=&quot;nofollow&quot; target=&quot;_NEW&quot;&gt;\nhttp://leetleech.org/images/49096647227738764874.png&lt;/a&gt;\n","torrent":{"xt":"urn:btih:c57d8b13d7c7a8b05fd571058a46ec7b70b6c059","amp;dn":"Red+Mist+2008+%28Freak+Dog%29+DVDRip+Xvid+LKRG","amp;tr":["udp%3A%2F%2Ftracker.openbittorrent.com%3A80","udp%3A%2F%2Fopen.demonii.com%3A1337","udp%3A%2F%2Ftracker.coppersurfer.tk%3A6969","udp%3A%2F%2Fexodus.desync.com%3A6969"],"infoHash":"c57d8b13d7c7a8b05fd571058a46ec7b70b6c059","infoHashBuffer":{"type":"Buffer","data":[197,125,139,19,215,199,168,176,95,213,113,5,138,70,236,123,112,182,192,89]},"announce":[],"urlList":[]}}